<?xml version="1.0" encoding="UTF-8" standalone="no"?>
<!DOCTYPE svg PUBLIC "-//W3C//DTD SVG 1.1//EN" "http://www.w3.org/Graphics/SVG/1.1/DTD/svg11.dtd">
<svg version="1.1" xmlns="http://www.w3.org/2000/svg" xmlns:xlink="http://www.w3.org/1999/xlink" preserveAspectRatio="xMidYMid meet" viewBox="0 0 640 640" width="600" height="600"><defs><path d="M353.02 93.13C346.49 93.76 321.74 79.25 311.29 92.71C300.84 106.16 271.48 97.47 265.64 101.89C252.39 111.93 263.79 149.57 284.39 147.58C305 145.58 315.36 73.22 283.04 78.54C274.96 79.88 263.64 91.11 249.08 112.26C227 130.82 224.75 138.58 176.15 152.85C127.55 167.13 138.58 73.93 189.17 87.64C222.89 96.78 172.8 127.17 155.92 136.83C139.04 146.49 145.21 173.09 110.87 164.9C76.53 156.7 29.88 145.04 28.25 145.01C21.29 144.88 3.2 151.38 27.07 167.3C50.95 183.21 55.1 165.9 67.66 129.83C80.22 93.76 64.52 63.16 68.53 42.93C70.29 34.06 65.82 25.88 84.15 16.68C102.49 7.47 123.86 20.47 103.41 43.28C82.96 66.1 12.15 64.88 11.4 53" id="f1jSlsbq2P"></path></defs><g><g><g><g><filter id="shadow4006883" x="-13.6" y="-11.31" width="403.62" height="217.54" filterUnits="userSpaceOnUse" primitiveUnits="userSpaceOnUse"><feFlood></feFlood><feComposite in2="SourceAlpha" operator="in"></feComposite><feGaussianBlur stdDeviation="2"></feGaussianBlur><feOffset dx="12" dy="8" result="afterOffset"></feOffset><feFlood flood-color="#922c2c" flood-opacity="1"></feFlood><feComposite in2="afterOffset" operator="in"></feComposite><feMorphology operator="dilate" radius="0"></feMorphology><feComposite in2="SourceAlpha" operator="out"></feComposite></filter><path d="M353.02 93.13C346.49 93.76 321.74 79.25 311.29 92.71C300.84 106.16 271.48 97.47 265.64 101.89C252.39 111.93 263.79 149.57 284.39 147.58C305 145.58 315.36 73.22 283.04 78.54C274.96 79.88 263.64 91.11 249.08 112.26C227 130.82 224.75 138.58 176.15 152.85C127.55 167.13 138.58 73.93 189.17 87.64C222.89 96.78 172.8 127.17 155.92 136.83C139.04 146.49 145.21 173.09 110.87 164.9C76.53 156.7 29.88 145.04 28.25 145.01C21.29 144.88 3.2 151.38 27.07 167.3C50.95 183.21 55.1 165.9 67.66 129.83C80.22 93.76 64.52 63.16 68.53 42.93C70.29 34.06 65.82 25.88 84.15 16.68C102.49 7.47 123.86 20.47 103.41 43.28C82.96 66.1 12.15 64.88 11.4 53" id="b3XelMmTvL" fill="none" stroke="white" filter="url(#shadow4006883)"></path></g><use xlink:href="#f1jSlsbq2P" opacity="1" fill="#c44949" fill-opacity="0"></use><g><use xlink:href="#f1jSlsbq2P" opacity="1" fill-opacity="0" stroke="#000000" stroke-width="18" stroke-opacity="1"></use></g><g><filter id="shadow14536548" x="2.4" y="4.69" width="360.62" height="178.54" filterUnits="userSpaceOnUse" primitiveUnits="userSpaceOnUse"><feFlood></feFlood><feComposite in2="SourceAlpha" operator="out"></feComposite><feGaussianBlur stdDeviation="1"></feGaussianBlur><feOffset dx="1" dy="1" result="afterOffset"></feOffset><feFlood flood-color="#000000" flood-opacity="0.5"></feFlood><feComposite in2="afterOffset" operator="in"></feComposite><feMorphology operator="dilate" radius="1"></feMorphology><feComposite in2="SourceAlpha" operator="in"></feComposite></filter><path d="M353.02 93.13C346.49 93.76 321.74 79.25 311.29 92.71C300.84 106.16 271.48 97.47 265.64 101.89C252.39 111.93 263.79 149.57 284.39 147.58C305 145.58 315.36 73.22 283.04 78.54C274.96 79.88 263.64 91.11 249.08 112.26C227 130.82 224.75 138.58 176.15 152.85C127.55 167.13 138.58 73.93 189.17 87.64C222.89 96.78 172.8 127.17 155.92 136.83C139.04 146.49 145.21 173.09 110.87 164.9C76.53 156.7 29.88 145.04 28.25 145.01C21.29 144.88 3.2 151.38 27.07 167.3C50.95 183.21 55.1 165.9 67.66 129.83C80.22 93.76 64.52 63.16 68.53 42.93C70.29 34.06 65.82 25.88 84.15 16.68C102.49 7.47 123.86 20.47 103.41 43.28C82.96 66.1 12.15 64.88 11.4 53" id="afvAOzC5E" fill="none" stroke="white" filter="url(#shadow14536548)"></path></g></g></g></g></svg>